<?xml version="1.0" standalone="no"?>
<!DOCTYPE svg PUBLIC "-//W3C//DTD SVG 20010904//EN"
 "http://www.w3.org/TR/2001/REC-SVG-20010904/DTD/svg10.dtd">
<svg version="1.0" xmlns="http://www.w3.org/2000/svg"
 width="342.000000pt" height="153.000000pt" viewBox="0 0 342.000000 153.000000"
 preserveAspectRatio="xMidYMid meet">

<g transform="translate(0.000000,153.000000) scale(0.100000,-0.100000)"
fill="#000000" stroke="none">
<path d="M990 989 c0 -9 -18 -32 -39 -51 l-39 -35 33 -32 c19 -17 37 -40 40
-51 6 -20 25 -28 25 -11 0 5 21 30 46 54 l46 45 -23 12 c-13 6 -39 28 -56 48
-21 24 -33 31 -33 21z"/>
<path d="M2010 889 c0 -26 3 -30 23 -27 31 4 31 50 -1 54 -19 3 -22 -1 -22
-27z"/>
<path d="M2187 913 c-18 -5 -47 -52 -47 -78 0 -8 -7 -15 -15 -15 -8 0 -15 -9
-15 -20 0 -11 7 -20 15 -20 12 0 15 -18 15 -105 0 -98 1 -105 20 -105 19 0 20
7 20 105 l0 105 35 0 c28 0 35 4 35 20 0 16 -7 20 -35 20 -39 0 -42 6 -19 39
12 16 23 22 40 18 20 -3 43 18 31 29 -7 7 -62 12 -80 7z"/>
<path d="M714 885 c-3 -14 -10 -25 -15 -25 -5 0 -9 -6 -9 -12 0 -14 -94 -107
-124 -124 -33 -18 -29 -30 24 -68 27 -20 50 -39 50 -43 0 -5 14 -24 30 -43 17
-19 33 -44 36 -55 4 -11 11 -23 17 -27 11 -7 57 36 57 53 0 17 92 109 132 131
20 12 35 25 32 30 -3 5 -24 21 -47 35 -45 28 -102 85 -139 139 -28 40 -36 42
-44 9z"/>
<path d="M1390 780 c-85 -216 -83 -210 -57 -210 18 0 26 10 38 43 l16 42 74 3
75 3 15 -43 c11 -30 22 -44 37 -46 13 -2 22 2 21 10 0 7 -28 83 -62 168 -83
207 -87 207 -157 30z m104 -4 c14 -37 26 -70 26 -72 0 -2 -26 -4 -59 -4 l-59
0 25 67 c25 70 33 86 38 81 2 -2 15 -34 29 -72z"/>
<path d="M2600 753 c-34 -87 -64 -164 -67 -170 -3 -8 4 -13 19 -13 19 0 27 9
39 43 l16 42 74 3 75 3 15 -43 c11 -30 22 -44 37 -46 12 -2 22 0 22 5 0 5 -28
80 -63 168 -85 216 -85 216 -167 8z m110 35 c13 -35 25 -69 27 -75 4 -10 -11
-13 -54 -13 l-60 0 26 75 c14 41 29 75 32 75 4 0 17 -28 29 -62z"/>
<path d="M2890 740 c0 -163 1 -170 20 -170 19 0 20 7 20 170 0 163 -1 170 -20
170 -19 0 -20 -7 -20 -170z"/>
<path d="M1850 860 c0 -29 -4 -40 -15 -40 -8 0 -15 -9 -15 -20 0 -11 7 -20 15
-20 12 0 15 -17 15 -90 0 -84 1 -91 25 -106 32 -21 85 -11 85 16 0 14 -9 20
-32 22 l-33 3 -3 78 -3 77 31 0 c23 0 30 4 30 20 0 16 -7 20 -30 20 -28 0 -30
2 -30 40 0 33 -3 40 -20 40 -17 0 -20 -7 -20 -40z"/>
<path d="M1660 695 c0 -118 1 -125 20 -125 18 0 20 7 20 78 0 69 3 81 23 99
12 12 31 23 42 25 12 2 21 13 23 27 3 20 1 22 -20 16 -13 -4 -33 -18 -45 -31
-22 -25 -27 -20 -24 19 2 11 -5 17 -18 17 -20 0 -21 -5 -21 -125z"/>
<path d="M2010 696 l0 -126 25 0 26 0 -3 123 c-3 118 -4 122 -25 125 -23 3
-23 2 -23 -122z"/>
<path d="M2289 773 c11 -27 34 -82 51 -123 27 -63 30 -79 21 -103 -6 -15 -22
-32 -36 -37 -35 -13 -33 -40 3 -40 39 0 64 31 97 120 15 41 40 110 56 153 29
77 29 78 8 75 -17 -2 -28 -21 -53 -93 -18 -49 -36 -89 -42 -87 -5 2 -25 44
-44 93 -30 75 -39 89 -57 89 l-23 0 19 -47z"/>
<path d="M980 582 c0 -9 -16 -31 -35 -47 -19 -17 -35 -33 -35 -36 0 -3 18 -25
40 -48 22 -23 40 -49 40 -57 0 -13 2 -13 13 -2 8 7 19 23 25 35 7 12 26 30 42
40 28 16 41 43 21 43 -8 0 -51 41 -79 74 -17 21 -32 20 -32 -2z"/>
</g>
</svg>
